<?xml version="1.0" standalone="no"?>
<!DOCTYPE svg PUBLIC "-//W3C//DTD SVG 20010904//EN"
 "http://www.w3.org/TR/2001/REC-SVG-20010904/DTD/svg10.dtd">
<svg version="1.0" xmlns="http://www.w3.org/2000/svg"
 width="512.000000pt" height="512.000000pt" viewBox="0 0 512.000000 512.000000"
 preserveAspectRatio="xMidYMid meet">
<metadata>
Created by potrace 1.11, written by Peter Selinger 2001-2013
</metadata>
<g transform="translate(0.000000,512.000000) scale(0.100000,-0.100000)"
fill="#000000" stroke="none">
<path d="M0 2560 l0 -2560 2560 0 2560 0 0 2560 0 2560 -2560 0 -2560 0 0
-2560z m1890 1278 c0 -479 2 -874 5 -876 3 -3 60 22 128 56 126 62 440 216
870 426 131 64 241 116 243 116 2 0 4 -98 4 -218 l0 -218 -142 -69 c-79 -37
-244 -118 -368 -178 -449 -218 -596 -290 -667 -323 l-73 -34 0 -815 0 -815
1338 0 c735 0 1343 0 1350 0 9 0 12 -53 12 -230 l0 -230 -1760 0 -1760 0 -2
854 -3 854 -378 -189 c-208 -104 -385 -189 -393 -189 -12 0 -14 33 -12 211 l3
210 25 15 c49 28 742 364 751 364 5 0 9 442 9 1075 l0 1075 410 0 410 0 0
-872z"/>
</g>
</svg>
